<?xml version="1.0" encoding="UTF-8" standalone="no"?>
<!-- Created with Inkscape (http://www.inkscape.org/) -->

<svg
   xmlns:dc="http://purl.org/dc/elements/1.1/"
   xmlns:cc="http://creativecommons.org/ns#"
   xmlns:rdf="http://www.w3.org/1999/02/22-rdf-syntax-ns#"
   xmlns:svg="http://www.w3.org/2000/svg"
   xmlns="http://www.w3.org/2000/svg"
   xmlns:sodipodi="http://sodipodi.sourceforge.net/DTD/sodipodi-0.dtd"
   xmlns:inkscape="http://www.inkscape.org/namespaces/inkscape"
   width="210mm"
   height="297mm"
   viewBox="0 0 744.09448819 1052.3622047"
   id="svg2"
   version="1.1"
   inkscape:version="0.91 r13725"
   sodipodi:docname="cdOutlinesvg.svg">
  <defs
     id="defs4" />
  <sodipodi:namedview
     id="base"
     pagecolor="#ffffff"
     bordercolor="#666666"
     borderopacity="1.0"
     inkscape:pageopacity="0.0"
     inkscape:pageshadow="2"
     inkscape:zoom="0.7"
     inkscape:cx="-9.2486886"
     inkscape:cy="317.4608"
     inkscape:document-units="px"
     inkscape:current-layer="layer1"
     showgrid="false"
     inkscape:window-width="1366"
     inkscape:window-height="705"
     inkscape:window-x="-8"
     inkscape:window-y="-8"
     inkscape:window-maximized="1" />
  <metadata
     id="metadata7">
    <rdf:RDF>
      <cc:Work
         rdf:about="">
        <dc:format>image/svg+xml</dc:format>
        <dc:type
           rdf:resource="http://purl.org/dc/dcmitype/StillImage" />
        <dc:title></dc:title>
      </cc:Work>
    </rdf:RDF>
  </metadata>
  <g
     inkscape:label="Layer 1"
     inkscape:groupmode="layer"
     id="layer1">
    <path
       style="fill:#ee7f0a;fill-opacity:1"
       d="m 157.14286,458.07557 0,200 200,0 0,-200 -200,0 z m 100,6.25 a 93.75,93.750007 0 0 1 93.75,93.75001 93.75,93.750007 0 0 1 -93.75,93.74999 93.75,93.750007 0 0 1 -93.75,-93.74999 93.75,93.750007 0 0 1 93.75,-93.75001 z m 0,64.06251 a 29.6875,29.687502 0 0 0 -29.6875,29.6875 29.6875,29.687502 0 0 0 29.6875,29.6875 29.6875,29.687502 0 0 0 29.6875,-29.6875 29.6875,29.687502 0 0 0 -29.6875,-29.6875 z m 0,3.90624 a 25.78125,25.781251 0 0 1 25.78125,25.78126 25.78125,25.781251 0 0 1 -25.78125,25.78125 25.78125,25.781251 0 0 1 -25.78125,-25.78125 25.78125,25.781251 0 0 1 25.78125,-25.78126 z m 0,11.71876 a 14.0625,14.062501 0 0 0 -14.0625,14.0625 14.0625,14.062501 0 0 0 14.0625,14.0625 14.0625,14.062501 0 0 0 14.0625,-14.0625 14.0625,14.062501 0 0 0 -14.0625,-14.0625 z"
       id="rect4175"
       inkscape:connector-curvature="0" />
  </g>
</svg>
